<svg width="32" height="32" viewBox="0 0 32 32" fill="none" xmlns="http://www.w3.org/2000/svg">
<g filter="url(#filter0_i_49_894)">
<circle cx="16" cy="16" r="16" transform="matrix(-1 0 0 1 32 0)" fill="white"/>
</g>
<path d="M13.18 17C13.73 17 14.18 17.45 14.18 18C14.18 18.55 13.73 19 13.18 19C12.63 19 12.18 18.55 12.18 18C12.18 17.45 12.63 17 13.18 17ZM13.18 15C11.52 15 10.18 16.34 10.18 18C10.18 19.66 11.52 21 13.18 21C14.84 21 16.18 19.66 16.18 18C16.18 16.34 14.84 15 13.18 15ZM21.6799 13L22.7699 10.59L25.1799 9.5L22.7699 8.41L21.6799 6L20.5899 8.41L18.18 9.5L20.5899 10.59L21.6799 13ZM24.4599 16.72L23.6799 15L22.8999 16.72L21.1799 17.5L22.8999 18.28L23.6799 20L24.4599 18.28L26.1799 17.5L24.4599 16.72ZM19.43 18C19.43 17.88 19.43 17.75 19.42 17.63L21.3599 16.16L18.86 11.83L16.62 12.77C16.42 12.64 16.2 12.51 15.98 12.4L15.68 10H10.68L10.38 12.41C10.16 12.52 9.94998 12.65 9.73998 12.78L7.49999 11.83L5 16.16L6.93999 17.63C6.92999 17.75 6.92999 17.88 6.92999 18C6.92999 18.12 6.92999 18.25 6.93999 18.37L5 19.84L7.49999 24.17L9.73998 23.23C9.93998 23.36 10.16 23.49 10.38 23.6L10.68 26H15.68L15.98 23.59C16.2 23.48 16.41 23.36 16.62 23.22L18.86 24.16L21.3599 19.83L19.42 18.36C19.43 18.25 19.43 18.12 19.43 18ZM18.01 21.64L16.28 20.91C15.72 21.51 14.98 21.95 14.15 22.14L13.91 24H12.45L12.22 22.14C11.39 21.95 10.65 21.51 10.09 20.91L8.35999 21.64L7.62999 20.37L9.11999 19.24C8.99999 18.85 8.93999 18.44 8.93999 18.01C8.93999 17.58 8.99999 17.17 9.11999 16.78L7.62999 15.65L8.35999 14.38L10.09 15.11C10.65 14.51 11.39 14.07 12.22 13.88L12.45 12H13.92L14.15 13.86C14.98 14.05 15.72 14.49 16.28 15.09L18.01 14.36L18.74 15.63L17.25 16.76C17.37 17.15 17.43 17.56 17.43 17.99C17.43 18.42 17.37 18.83 17.25 19.22L18.74 20.35L18.01 21.64Z" fill="#FED800"/>
<defs>
<filter id="filter0_i_49_894" x="0" y="0" width="32" height="34" filterUnits="userSpaceOnUse" color-interpolation-filters="sRGB">
<feFlood flood-opacity="0" result="BackgroundImageFix"/>
<feBlend mode="normal" in="SourceGraphic" in2="BackgroundImageFix" result="shape"/>
<feColorMatrix in="SourceAlpha" type="matrix" values="0 0 0 0 0 0 0 0 0 0 0 0 0 0 0 0 0 0 127 0" result="hardAlpha"/>
<feOffset dy="2"/>
<feGaussianBlur stdDeviation="2"/>
<feComposite in2="hardAlpha" operator="arithmetic" k2="-1" k3="1"/>
<feColorMatrix type="matrix" values="0 0 0 0 0 0 0 0 0 0 0 0 0 0 0 0 0 0 0.25 0"/>
<feBlend mode="normal" in2="shape" result="effect1_innerShadow_49_894"/>
</filter>
</defs>
</svg>
