<svg width="32" height="32" viewBox="0 0 32 32" fill="none" xmlns="http://www.w3.org/2000/svg">
<g filter="url(#filter0_i_49_916)">
<circle cx="16" cy="16" r="16" transform="matrix(-1 0 0 1 32 0)" fill="white"/>
</g>
<path d="M16.192 8C18.708 8 21.0376 9.116 22.5824 10.9952C22.6264 11.0485 22.6593 11.11 22.679 11.1763C22.6987 11.2425 22.7049 11.312 22.6973 11.3807C22.6896 11.4493 22.6681 11.5158 22.6343 11.576C22.6004 11.6362 22.5547 11.689 22.5 11.7312C22.3887 11.8185 22.2477 11.8589 22.107 11.844C21.9663 11.8291 21.837 11.7599 21.7464 11.6512C21.0709 10.833 20.2222 10.1749 19.2616 9.72445C18.3009 9.27401 17.2522 9.04242 16.1912 9.0464C12.2592 9.0464 9.0712 12.16 9.0712 16C9.0712 19.84 12.2592 22.9536 16.1912 22.9536C17.2675 22.9577 18.3309 22.7194 19.3026 22.2565C20.2743 21.7935 21.1292 21.1177 21.804 20.2792C21.8931 20.1694 22.0213 20.0985 22.1617 20.0816C22.3021 20.0648 22.4435 20.1032 22.556 20.1888C22.6112 20.2303 22.6575 20.2825 22.6921 20.3422C22.7267 20.4019 22.749 20.468 22.7576 20.5365C22.7662 20.605 22.7609 20.6746 22.7421 20.741C22.7232 20.8074 22.6913 20.8694 22.648 20.9232C21.1056 22.8512 18.7448 24 16.192 24C11.6664 24 8 20.4184 8 16C8 11.5816 11.6672 8 16.192 8ZM21.6784 13.728L23.8432 15.8936C24.0528 16.1024 24.0568 16.4376 23.8528 16.6424L21.7376 18.7568C21.6373 18.855 21.502 18.9093 21.3616 18.9078C21.2212 18.9063 21.0871 18.8491 20.9888 18.7488C20.939 18.7002 20.8992 18.6422 20.8718 18.5782C20.8443 18.5142 20.8298 18.4454 20.829 18.3758C20.8282 18.3062 20.8411 18.2371 20.867 18.1725C20.8929 18.1078 20.9313 18.049 20.98 17.9992L22.2176 16.7616H13.9696C13.9001 16.7624 13.831 16.7496 13.7664 16.7237C13.7019 16.6979 13.643 16.6596 13.5932 16.611C13.5435 16.5624 13.5038 16.5045 13.4764 16.4406C13.449 16.3767 13.4344 16.308 13.4336 16.2384C13.4336 15.9488 13.6736 15.7144 13.9696 15.7144H22.1848L20.9384 14.468C20.838 14.3699 20.7806 14.2358 20.779 14.0954C20.7773 13.955 20.8315 13.8197 20.9296 13.7192C21.0301 13.6211 21.1654 13.5669 21.3059 13.5686C21.4463 13.5702 21.5803 13.6276 21.6784 13.728Z" fill="#FED800"/>
<defs>
<filter id="filter0_i_49_916" x="0" y="0" width="32" height="34" filterUnits="userSpaceOnUse" color-interpolation-filters="sRGB">
<feFlood flood-opacity="0" result="BackgroundImageFix"/>
<feBlend mode="normal" in="SourceGraphic" in2="BackgroundImageFix" result="shape"/>
<feColorMatrix in="SourceAlpha" type="matrix" values="0 0 0 0 0 0 0 0 0 0 0 0 0 0 0 0 0 0 127 0" result="hardAlpha"/>
<feOffset dy="2"/>
<feGaussianBlur stdDeviation="2"/>
<feComposite in2="hardAlpha" operator="arithmetic" k2="-1" k3="1"/>
<feColorMatrix type="matrix" values="0 0 0 0 0 0 0 0 0 0 0 0 0 0 0 0 0 0 0.25 0"/>
<feBlend mode="normal" in2="shape" result="effect1_innerShadow_49_916"/>
</filter>
</defs>
</svg>
