<svg width="32" height="32" viewBox="0 0 32 32" fill="none" xmlns="http://www.w3.org/2000/svg">
<g filter="url(#filter0_i_49_816)">
<circle cx="16" cy="16" r="16" transform="matrix(-1 0 0 1 32 0)" fill="white"/>
</g>
<path d="M8 22C8 20.9391 8.42143 19.9217 9.17157 19.1716C9.92172 18.4214 10.9391 18 12 18H20C21.0609 18 22.0783 18.4214 22.8284 19.1716C23.5786 19.9217 24 20.9391 24 22C24 22.5304 23.7893 23.0391 23.4142 23.4142C23.0391 23.7893 22.5304 24 22 24H10C9.46957 24 8.96086 23.7893 8.58579 23.4142C8.21071 23.0391 8 22.5304 8 22Z" stroke="#FED800" stroke-width="1.5" stroke-linejoin="round"/>
<path d="M16 14C17.6569 14 19 12.6569 19 11C19 9.34315 17.6569 8 16 8C14.3431 8 13 9.34315 13 11C13 12.6569 14.3431 14 16 14Z" stroke="#FED800" stroke-width="1.5"/>
<defs>
<filter id="filter0_i_49_816" x="0" y="0" width="32" height="34" filterUnits="userSpaceOnUse" color-interpolation-filters="sRGB">
<feFlood flood-opacity="0" result="BackgroundImageFix"/>
<feBlend mode="normal" in="SourceGraphic" in2="BackgroundImageFix" result="shape"/>
<feColorMatrix in="SourceAlpha" type="matrix" values="0 0 0 0 0 0 0 0 0 0 0 0 0 0 0 0 0 0 127 0" result="hardAlpha"/>
<feOffset dy="2"/>
<feGaussianBlur stdDeviation="2"/>
<feComposite in2="hardAlpha" operator="arithmetic" k2="-1" k3="1"/>
<feColorMatrix type="matrix" values="0 0 0 0 0 0 0 0 0 0 0 0 0 0 0 0 0 0 0.25 0"/>
<feBlend mode="normal" in2="shape" result="effect1_innerShadow_49_816"/>
</filter>
</defs>
</svg>
