<svg width="32" height="32" viewBox="0 0 32 32" fill="none" xmlns="http://www.w3.org/2000/svg">
<g filter="url(#filter0_i_49_870)">
<circle cx="16" cy="16" r="16" transform="matrix(-1 0 0 1 32 0)" fill="white"/>
</g>
<path d="M5.80322 15.0621V17.462C5.80322 20.4788 5.80322 21.9875 6.7408 22.9243C7.67758 23.8619 9.18634 23.8619 12.2031 23.8619H13.003C16.0198 23.8619 17.5285 23.8619 18.4653 22.9243M18.0652 15.5997C17.1277 16.3997 19.6932 12.9263 19.6652 13.5999" stroke="#FED800" stroke-width="1.19997" stroke-linecap="round"/>
<path d="M10.4655 8H14.4654M10.4655 8L9.94392 13.2135C9.90956 13.5653 9.94919 13.9204 10.0603 14.2559C10.1714 14.5915 10.3514 14.9001 10.5889 15.1619C10.8264 15.4238 11.1161 15.633 11.4392 15.7761C11.7624 15.9193 12.112 15.9933 12.4655 15.9933C12.8189 15.9933 13.1685 15.9193 13.4917 15.7761C13.8149 15.633 14.1045 15.4238 14.342 15.1619C14.5795 14.9001 14.7596 14.5915 14.8706 14.2559C14.9817 13.9204 15.0214 13.5653 14.987 13.2135L14.4654 8M10.4655 8H8.79995C8.07357 8 7.71038 8 7.39838 8.0856C7.07389 8.1746 6.77173 8.33084 6.51153 8.54419C6.25133 8.75753 6.0389 9.0232 5.88802 9.32397M10.4655 8L9.88552 13.7959C9.85492 14.1275 9.75693 14.4495 9.59758 14.742C9.43822 15.0345 9.22084 15.2914 8.95874 15.497C8.69664 15.7026 8.39535 15.8525 8.07329 15.9376C7.75124 16.0227 7.41521 16.0412 7.08577 15.9919C6.75633 15.9426 6.44042 15.8266 6.15737 15.651C5.87432 15.4754 5.63008 15.2439 5.43962 14.9706C5.24916 14.6973 5.11648 14.388 5.0497 14.0617C4.98292 13.7353 4.98344 13.3988 5.05124 13.0727L5.10564 12.7999M14.4654 8H16.131C16.8574 8 17.2205 8 17.5325 8.0856C17.857 8.1746 18.1592 8.33084 18.4194 8.54419C18.6796 8.75753 18.892 9.0232 19.0429 9.32397C19.1877 9.61196 19.2589 9.96875 19.4013 10.6807L19.8797 13.0727C19.9475 13.3988 19.948 13.7353 19.8812 14.0617C19.8144 14.388 19.6818 14.6973 19.4913 14.9706C19.3008 15.2439 19.0566 15.4754 18.7736 15.651C18.4905 15.8266 18.1746 15.9426 17.8451 15.9919C17.5157 16.0412 17.1797 16.0227 16.8576 15.9376C16.5356 15.8525 16.2343 15.7026 15.9722 15.497C15.7101 15.2914 15.4927 15.0345 15.3333 14.742C15.174 14.4495 15.076 14.1275 15.0454 13.7959L14.4654 8ZM10.4655 23.5996V21.1997C10.4655 20.4517 10.4655 20.0781 10.6263 19.7997C10.7316 19.6173 10.8831 19.4658 11.0655 19.3605C11.3439 19.1997 11.7175 19.1997 12.4655 19.1997C13.2134 19.1997 13.587 19.1997 13.8654 19.3605C14.0478 19.4658 14.1993 19.6173 14.3046 19.7997C14.4654 20.0781 14.4654 20.4517 14.4654 21.1997V23.5996" stroke="#FED800" stroke-width="1.19997" stroke-linecap="round"/>
<path d="M21.3806 15.7602C21.4748 15.7533 21.5693 15.7498 21.6638 15.7498V15.1998C21.5557 15.1999 21.4477 15.2039 21.3399 15.2119L21.3806 15.7602ZM20.2785 16.0077C20.4548 15.9397 20.6359 15.8847 20.8202 15.8433L20.6998 15.3065C20.4891 15.3538 20.2818 15.4165 20.0805 15.4946L20.2785 16.0077ZM19.5251 16.3982C19.6037 16.3457 19.6842 16.2962 19.7665 16.2497L19.4954 15.7712C19.3074 15.8778 19.1274 15.998 18.957 16.1309L19.2952 16.5648C19.3698 16.5066 19.4464 16.4512 19.5251 16.3987V16.3982ZM18.5165 17.3826C18.6253 17.228 18.7453 17.0817 18.8756 16.9448L18.4774 16.5653C18.329 16.7221 18.1915 16.8898 18.0666 17.0658L18.5165 17.3826ZM18.1073 18.1261C18.1434 18.0389 18.1827 17.953 18.225 17.8687L17.7339 17.6212C17.6368 17.8143 17.5541 18.0143 17.4865 18.2196L18.0089 18.3917C18.0385 18.302 18.0713 18.2134 18.1073 18.1261ZM17.8159 19.5048C17.8203 19.3158 17.8387 19.1274 17.8709 18.9411L17.3292 18.8476C17.2923 19.0599 17.2709 19.2755 17.2654 19.491L17.8153 19.5048H17.8159ZM17.8879 20.3506C17.8698 20.2571 17.8549 20.1642 17.8434 20.0701L17.2973 20.1378C17.3237 20.3523 17.366 20.5646 17.4238 20.7729L17.9539 20.6261C17.9286 20.5354 17.9066 20.4435 17.8879 20.3506ZM18.4115 21.6589C18.3103 21.4994 18.2212 21.3322 18.1442 21.1596L17.6415 21.3823C17.7295 21.5803 17.8313 21.7705 17.9468 21.9531L18.4115 21.6589ZM18.9416 22.3216C18.8745 22.2545 18.8102 22.1852 18.7491 22.1137L18.3323 22.4728C18.4029 22.5547 18.4764 22.6339 18.5528 22.7104L18.9416 22.3216Z" fill="#FED800"/>
<path d="M21.6639 15.7498C22.297 15.7498 22.9202 15.906 23.4785 16.2044C24.0368 16.5029 24.5129 16.9344 24.8646 17.4608C25.2162 17.9872 25.4327 18.5921 25.4947 19.2221C25.5568 19.8521 25.4625 20.4877 25.2202 21.0726C24.9779 21.6574 24.5952 22.1735 24.1058 22.5751C23.6165 22.9767 23.0356 23.2515 22.4147 23.375C21.7939 23.4985 21.1521 23.467 20.5463 23.2832C19.9405 23.0995 19.3894 22.7692 18.9417 22.3216L18.5529 22.7104C19.0645 23.2223 19.6944 23.6001 20.3869 23.8103C21.0794 24.0205 21.8131 24.0567 22.5229 23.9156C23.2327 23.7745 23.8968 23.4605 24.4562 23.0014C25.0157 22.5424 25.4533 21.9524 25.7302 21.2838C26.0072 20.6152 26.1149 19.8886 26.044 19.1684C25.973 18.4482 25.7255 17.7566 25.3233 17.1549C24.9212 16.5532 24.3768 16.06 23.7385 15.719C23.1002 15.378 22.3876 15.1996 21.6639 15.1998V15.7498Z" fill="#FED800"/>
<path d="M21.9389 16.8496C21.866 16.8496 21.796 16.8786 21.7445 16.9301C21.6929 16.9817 21.6639 17.0517 21.6639 17.1246V19.9898L19.8777 21.0105C19.8162 21.0476 19.7717 21.1072 19.7536 21.1767C19.7356 21.2462 19.7454 21.32 19.781 21.3823C19.8166 21.4447 19.8752 21.4906 19.9443 21.5103C20.0133 21.53 20.0873 21.522 20.1505 21.4878L22.0753 20.3879C22.1174 20.3639 22.1524 20.3292 22.1767 20.2872C22.201 20.2453 22.2139 20.1977 22.2139 20.1493V17.1246C22.2139 17.0517 22.1849 16.9817 22.1333 16.9301C22.0818 16.8786 22.0118 16.8496 21.9389 16.8496Z" fill="#FED800"/>
<defs>
<filter id="filter0_i_49_870" x="0" y="0" width="32" height="34" filterUnits="userSpaceOnUse" color-interpolation-filters="sRGB">
<feFlood flood-opacity="0" result="BackgroundImageFix"/>
<feBlend mode="normal" in="SourceGraphic" in2="BackgroundImageFix" result="shape"/>
<feColorMatrix in="SourceAlpha" type="matrix" values="0 0 0 0 0 0 0 0 0 0 0 0 0 0 0 0 0 0 127 0" result="hardAlpha"/>
<feOffset dy="2"/>
<feGaussianBlur stdDeviation="2"/>
<feComposite in2="hardAlpha" operator="arithmetic" k2="-1" k3="1"/>
<feColorMatrix type="matrix" values="0 0 0 0 0 0 0 0 0 0 0 0 0 0 0 0 0 0 0.25 0"/>
<feBlend mode="normal" in2="shape" result="effect1_innerShadow_49_870"/>
</filter>
</defs>
</svg>
