<svg width="32" height="32" viewBox="0 0 32 32" fill="none" xmlns="http://www.w3.org/2000/svg">
<g filter="url(#filter0_i_49_910)">
<circle cx="16" cy="16" r="16" transform="matrix(-1 0 0 1 32 0)" fill="white"/>
</g>
<path d="M11.0773 15.9997V12.7629C11.0869 12.1267 11.2219 11.4986 11.4747 10.9146C11.7275 10.3307 12.093 9.80233 12.5503 9.35988C13.0076 8.91743 13.5477 8.56957 14.1397 8.33623C14.7317 8.10288 15.3639 7.98864 16.0001 8.00004C16.6363 7.98864 17.2685 8.10288 17.8605 8.33623C18.4525 8.56957 18.9926 8.91743 19.4499 9.35988C19.9072 9.80233 20.2727 10.3307 20.5255 10.9146C20.7783 11.4986 20.9133 12.1267 20.9229 12.7629V15.9997M18.4615 22.4609C19.1143 22.4609 19.7404 22.2016 20.202 21.7399C20.6636 21.2783 20.9229 20.6523 20.9229 19.9995V17.2304M18.4615 22.4609C18.4615 22.8689 18.2994 23.2602 18.0109 23.5487C17.7224 23.8372 17.3311 23.9993 16.9231 23.9993H15.0771C14.6691 23.9993 14.2778 23.8372 13.9893 23.5487C13.7008 23.2602 13.5387 22.8689 13.5387 22.4609C13.5387 22.0529 13.7008 21.6616 13.9893 21.3731C14.2778 21.0846 14.6691 20.9225 15.0771 20.9225H16.9231C17.3311 20.9225 17.7224 21.0846 18.0109 21.3731C18.2994 21.6616 18.4615 22.0529 18.4615 22.4609ZM9.2312 14.1536H10.4619C10.6251 14.1536 10.7816 14.2184 10.897 14.3338C11.0124 14.4492 11.0773 14.6057 11.0773 14.7689V18.4611C11.0773 18.6243 11.0124 18.7808 10.897 18.8962C10.7816 19.0116 10.6251 19.0764 10.4619 19.0764H9.2312C8.90479 19.0764 8.59176 18.9468 8.36095 18.716C8.13015 18.4852 8.00049 18.1721 8.00049 17.8457V15.3843C8.00049 15.0579 8.13015 14.7449 8.36095 14.5141C8.59176 14.2833 8.90479 14.1536 9.2312 14.1536ZM22.769 19.0764H21.5383C21.3751 19.0764 21.2186 19.0116 21.1032 18.8962C20.9878 18.7808 20.9229 18.6243 20.9229 18.4611V14.7689C20.9229 14.6057 20.9878 14.4492 21.1032 14.3338C21.2186 14.2184 21.3751 14.1536 21.5383 14.1536H22.769C23.0954 14.1536 23.4084 14.2833 23.6392 14.5141C23.87 14.7449 23.9997 15.0579 23.9997 15.3843V17.8457C23.9997 18.1721 23.87 18.4852 23.6392 18.716C23.4084 18.9468 23.0954 19.0764 22.769 19.0764Z" stroke="#FED800" stroke-width="1.23071" stroke-linecap="round" stroke-linejoin="round"/>
<defs>
<filter id="filter0_i_49_910" x="0" y="0" width="32" height="34" filterUnits="userSpaceOnUse" color-interpolation-filters="sRGB">
<feFlood flood-opacity="0" result="BackgroundImageFix"/>
<feBlend mode="normal" in="SourceGraphic" in2="BackgroundImageFix" result="shape"/>
<feColorMatrix in="SourceAlpha" type="matrix" values="0 0 0 0 0 0 0 0 0 0 0 0 0 0 0 0 0 0 127 0" result="hardAlpha"/>
<feOffset dy="2"/>
<feGaussianBlur stdDeviation="2"/>
<feComposite in2="hardAlpha" operator="arithmetic" k2="-1" k3="1"/>
<feColorMatrix type="matrix" values="0 0 0 0 0 0 0 0 0 0 0 0 0 0 0 0 0 0 0.25 0"/>
<feBlend mode="normal" in2="shape" result="effect1_innerShadow_49_910"/>
</filter>
</defs>
</svg>
