<svg width="32" height="32" viewBox="0 0 32 32" fill="none" xmlns="http://www.w3.org/2000/svg">
<g filter="url(#filter0_i_49_875)">
<circle cx="16" cy="16" r="16" transform="matrix(-1 0 0 1 32 0)" fill="white"/>
</g>
<path d="M8.88867 13.3333H10.6664V8H12.4442L15.4842 13.3333H19.5553V8H21.3331V13.3333H23.1108V15.1111H21.3331V16.8889H23.1108V18.6667H21.3331V24H19.5553L16.5064 18.6667H12.4442V24H10.6664V18.6667H8.88867V16.8889H10.6664V15.1111H8.88867V13.3333ZM12.4442 13.3333H13.4487L12.4442 11.5822V13.3333ZM12.4442 15.1111V16.8889H15.4842L14.4709 15.1111H12.4442ZM19.5553 20.4444V18.6667H18.5331L19.5553 20.4444ZM16.4975 15.1111L17.5197 16.8889H19.5553V15.1111H16.4975Z" fill="#FED800"/>
<defs>
<filter id="filter0_i_49_875" x="0" y="0" width="32" height="34" filterUnits="userSpaceOnUse" color-interpolation-filters="sRGB">
<feFlood flood-opacity="0" result="BackgroundImageFix"/>
<feBlend mode="normal" in="SourceGraphic" in2="BackgroundImageFix" result="shape"/>
<feColorMatrix in="SourceAlpha" type="matrix" values="0 0 0 0 0 0 0 0 0 0 0 0 0 0 0 0 0 0 127 0" result="hardAlpha"/>
<feOffset dy="2"/>
<feGaussianBlur stdDeviation="2"/>
<feComposite in2="hardAlpha" operator="arithmetic" k2="-1" k3="1"/>
<feColorMatrix type="matrix" values="0 0 0 0 0 0 0 0 0 0 0 0 0 0 0 0 0 0 0.25 0"/>
<feBlend mode="normal" in2="shape" result="effect1_innerShadow_49_875"/>
</filter>
</defs>
</svg>
