<svg width="18" height="18" viewBox="0 0 18 18" fill="none" xmlns="http://www.w3.org/2000/svg">
<path d="M4.69217 9.61529C5.03204 9.61529 5.30755 9.33977 5.30755 8.99991C5.30755 8.66004 5.03204 8.38452 4.69217 8.38452C4.3523 8.38452 4.07678 8.66004 4.07678 8.99991C4.07678 9.33977 4.3523 9.61529 4.69217 9.61529Z" stroke="url(#paint0_linear_44_144)" stroke-width="1.23077" stroke-linecap="round" stroke-linejoin="round"/>
<path d="M8.69217 9.61529C9.03204 9.61529 9.30755 9.33977 9.30755 8.99991C9.30755 8.66004 9.03204 8.38452 8.69217 8.38452C8.3523 8.38452 8.07678 8.66004 8.07678 8.99991C8.07678 9.33977 8.3523 9.61529 8.69217 9.61529Z" stroke="url(#paint1_linear_44_144)" stroke-width="1.23077" stroke-linecap="round" stroke-linejoin="round"/>
<path d="M12.6922 9.61529C13.032 9.61529 13.3076 9.33977 13.3076 8.99991C13.3076 8.66004 13.032 8.38452 12.6922 8.38452C12.3523 8.38452 12.0768 8.66004 12.0768 8.99991C12.0768 9.33977 12.3523 9.61529 12.6922 9.61529Z" stroke="url(#paint2_linear_44_144)" stroke-width="1.23077" stroke-linecap="round" stroke-linejoin="round"/>
<path d="M8.99988 1C7.55279 1.00045 6.13292 1.3934 4.8915 2.137C3.65008 2.8806 2.6336 3.947 1.95032 5.22262C1.26704 6.49823 0.942562 7.9353 1.01143 9.38075C1.08031 10.8262 1.53995 12.2259 2.34142 13.4308L0.999878 17L5.49219 16.1877C6.57392 16.7163 7.76102 16.9939 8.96499 16.9999C10.169 17.0059 11.3587 16.74 12.4457 16.2221C13.5326 15.7043 14.4886 14.9477 15.2424 14.009C15.9963 13.0702 16.5285 11.9734 16.7994 10.8003C17.0704 9.62716 17.073 8.40803 16.8072 7.23376C16.5414 6.05948 16.0139 4.96035 15.2642 4.0183C14.5145 3.07624 13.5618 2.31556 12.4771 1.79295C11.3925 1.27034 10.2039 0.999291 8.99988 1Z" stroke="url(#paint3_linear_44_144)" stroke-width="1.23077" stroke-linecap="round" stroke-linejoin="round"/>
<defs>
<linearGradient id="paint0_linear_44_144" x1="4.31618" y1="8.79821" x2="5.2846" y2="8.34204" gradientUnits="userSpaceOnUse">
<stop stop-color="#010CA6"/>
<stop offset="1" stop-color="#FFDB00"/>
</linearGradient>
<linearGradient id="paint1_linear_44_144" x1="8.31618" y1="8.79821" x2="9.2846" y2="8.34204" gradientUnits="userSpaceOnUse">
<stop stop-color="#010CA6"/>
<stop offset="1" stop-color="#FFDB00"/>
</linearGradient>
<linearGradient id="paint2_linear_44_144" x1="12.3162" y1="8.79821" x2="13.2846" y2="8.34204" gradientUnits="userSpaceOnUse">
<stop stop-color="#010CA6"/>
<stop offset="1" stop-color="#FFDB00"/>
</linearGradient>
<linearGradient id="paint3_linear_44_144" x1="4.11297" y1="6.3779" x2="16.7048" y2="0.444907" gradientUnits="userSpaceOnUse">
<stop stop-color="#010CA6"/>
<stop offset="1" stop-color="#FFDB00"/>
</linearGradient>
</defs>
</svg>
