<svg width="18" height="18" viewBox="0 0 18 18" fill="none" xmlns="http://www.w3.org/2000/svg">
<path d="M1 15C1 13.9391 1.42143 12.9217 2.17157 12.1716C2.92172 11.4214 3.93913 11 5 11H13C14.0609 11 15.0783 11.4214 15.8284 12.1716C16.5786 12.9217 17 13.9391 17 15C17 15.5304 16.7893 16.0391 16.4142 16.4142C16.0391 16.7893 15.5304 17 15 17H3C2.46957 17 1.96086 16.7893 1.58579 16.4142C1.21071 16.0391 1 15.5304 1 15Z" stroke="url(#paint0_linear_44_141)" stroke-width="1.5" stroke-linejoin="round"/>
<path d="M9 7C10.6569 7 12 5.65685 12 4C12 2.34315 10.6569 1 9 1C7.34315 1 6 2.34315 6 4C6 5.65685 7.34315 7 9 7Z" stroke="url(#paint1_linear_44_141)" stroke-width="1.5"/>
<defs>
<linearGradient id="paint0_linear_44_141" x1="4.11217" y1="13.0167" x2="10.0796" y2="5.52104" gradientUnits="userSpaceOnUse">
<stop stop-color="#010CA6"/>
<stop offset="1" stop-color="#FFDB00"/>
</linearGradient>
<linearGradient id="paint1_linear_44_141" x1="7.16707" y1="3.01671" x2="11.8881" y2="0.792917" gradientUnits="userSpaceOnUse">
<stop stop-color="#010CA6"/>
<stop offset="1" stop-color="#FFDB00"/>
</linearGradient>
</defs>
</svg>
