<svg width="18" height="17" viewBox="0 0 18 17" fill="none" xmlns="http://www.w3.org/2000/svg">
<path d="M5.33368 13.4402C5.67315 13.4402 5.99871 13.575 6.23875 13.8151C6.4788 14.0551 6.61365 14.3807 6.61365 14.7202C6.61365 15.0596 6.4788 15.3852 6.23875 15.6252C5.99871 15.8653 5.67315 16.0001 5.33368 16.0001C4.99421 16.0001 4.66865 15.8653 4.4286 15.6252C4.18856 15.3852 4.05371 15.0596 4.05371 14.7202C4.05371 14.3807 4.18856 14.0551 4.4286 13.8151C4.66865 13.575 4.99421 13.4402 5.33368 13.4402ZM13.0135 13.4402C13.353 13.4402 13.6785 13.575 13.9186 13.8151C14.1586 14.0551 14.2935 14.3807 14.2935 14.7202C14.2935 15.0596 14.1586 15.3852 13.9186 15.6252C13.6785 15.8653 13.353 16.0001 13.0135 16.0001C12.674 16.0001 12.3485 15.8653 12.1084 15.6252C11.8684 15.3852 11.7335 15.0596 11.7335 14.7202C11.7335 14.3807 11.8684 14.0551 12.1084 13.8151C12.3485 13.575 12.674 13.4402 13.0135 13.4402Z" fill="url(#paint0_linear_44_147)" stroke="url(#paint1_linear_44_147)" stroke-width="1.27997"/>
<path d="M17.2658 8.37997L17.267 8.38022L17.1807 8.79813L17.1696 8.852C17.0448 9.45695 16.9324 10.0016 16.7849 10.4388M17.2658 8.37997L15.9662 11.113L15.9962 11.1499L16.2413 11.4505M17.2658 8.37997L17.5209 7.14073M17.2658 8.37997L17.5209 7.14073M16.7849 10.4388L16.3807 10.3025L16.7851 10.4383C16.785 10.4385 16.7849 10.4387 16.7849 10.4388ZM16.7849 10.4388C16.6652 10.795 16.5022 11.1441 16.2413 11.4505M16.2413 11.4505C16.1516 11.5559 16.0504 11.6562 15.9353 11.75L16.2659 11.4807L16.2413 11.4505ZM15.5798 11.9895C15.7012 11.9229 15.82 11.8439 15.935 11.7502M15.5798 11.9895L15.3348 11.689L15.935 11.7502M15.5798 11.9895C15.2272 12.1828 14.852 12.2722 14.4797 12.3174M15.5798 11.9895L15.6044 12.0197L15.935 11.7502M15.935 11.7502L14.4797 12.3174M14.4797 12.3174C14.4798 12.3174 14.4799 12.3174 14.4799 12.3174L14.4282 11.8939L14.4797 12.3174ZM14.4797 12.3174C14.1152 12.3619 13.6885 12.3711 13.2182 12.373L14.4797 12.3174ZM17.5209 7.14073L17.5232 7.14119L17.6051 6.73284L17.711 6.30855L17.6906 6.30446C17.798 5.75965 17.8866 5.26616 17.9123 4.84852C17.9392 4.4227 17.9106 3.95344 17.6982 3.51032L17.7331 3.4835L17.4756 3.14825C17.475 3.14749 17.4745 3.14673 17.4739 3.14597C17.4737 3.14574 17.4735 3.14551 17.4733 3.14527L17.5209 7.14073ZM2.95188 6.83545C2.95563 7.8572 2.97718 8.5884 3.07308 9.1528L2.95188 6.83545ZM2.95188 6.83545H3.37859H2.95188ZM1.19452 1.06209L1.33622 0.659455C1.69983 0.789518 2.00057 0.903885 2.24588 1.02418C2.43355 1.11653 2.59511 1.21478 2.73356 1.33052L2.36214 1.58413C2.27631 1.52408 2.17656 1.4669 2.0592 1.40953C1.83335 1.29775 1.55288 1.19046 1.19452 1.06209ZM0.396386 0.0483166C0.385307 0.0528833 0.374329 0.057772 0.363467 0.0629819C0.210321 0.136434 0.0926263 0.267715 0.0362745 0.427944C-0.0200773 0.588172 -0.0104703 0.764225 0.0629821 0.91737C0.068192 0.928232 0.0736929 0.938917 0.0794743 0.949413L0.0963768 0.901353L0.23793 0.498865L0.379484 0.0963766L0.396386 0.0483166ZM2.95119 5.98214V4.51274H3.37785V5.98214H2.95119ZM13.9436 3.51658V3.08989C14.5055 3.09183 15.0417 3.10166 15.4931 3.15168L15.4931 3.15172L15.4996 3.15234C15.7578 3.17699 16.0125 3.23017 16.259 3.3109C16.3258 3.33435 16.3905 3.36117 16.4519 3.39206L16.3675 3.45693L16.3673 3.45674L16.0588 3.69372C15.8928 3.64199 15.687 3.60368 15.4473 3.57605L15.4455 3.57584C15.0165 3.52826 14.502 3.51856 13.9436 3.51658ZM16.6233 4.33661L16.9954 4.05053C17.0634 4.26982 17.0783 4.51638 17.0607 4.79475L17.0607 4.79549C17.0385 5.15669 16.96 5.5974 16.8537 6.13709L16.7006 6.10646L16.7005 6.10644L16.4362 6.05192C16.5414 5.51559 16.6147 5.10199 16.635 4.76903L16.635 4.769C16.6453 4.59915 16.6414 4.45751 16.6233 4.33661ZM14.3238 11.0468C14.486 11.0273 14.6229 10.9995 14.7418 10.9614L15.0263 11.3105C14.8344 11.392 14.6202 11.4408 14.3768 11.4703L14.3765 11.4704C14.0604 11.509 13.68 11.5176 13.2182 11.5196V11.0929C13.6758 11.0911 14.0325 11.0829 14.3238 11.0468ZM12.3649 11.0935V11.5201H8.69398V11.0935H12.3649ZM7.84067 11.0933V11.52C6.86222 11.5187 6.08529 11.5084 5.46722 11.4203L5.46644 11.4202C4.92672 11.3443 4.48855 11.2067 4.12725 10.954L4.44533 10.6525C4.72256 10.8259 5.06881 10.9332 5.52721 10.9979C6.11419 11.0811 6.85918 11.0919 7.84067 11.0933ZM15.688 10.7717L15.4034 10.4226C15.4649 10.314 15.5201 10.1854 15.5723 10.0302C15.6662 9.75208 15.746 9.40472 15.8403 8.95723L15.8507 8.95936L16.2583 9.04342C16.1631 9.49483 16.078 9.8648 15.9764 10.166L15.9762 10.1666C15.8978 10.3999 15.8068 10.6001 15.688 10.7717ZM16.0118 8.12132L16.2657 6.88969L16.4755 6.93166L16.4765 6.93186L16.4778 6.93212L16.6839 6.97452L16.4301 8.20727L16.0226 8.12355L16.0118 8.12132ZM3.16537 2.23611H2.92137L3.21628 2.0345C3.23866 2.09918 3.25786 2.16626 3.27436 2.23611H3.16537ZM13.0885 3.51607H4.22982C4.2286 3.36828 4.2263 3.22588 4.22195 3.08942H13.0885V3.51607Z" fill="url(#paint2_linear_44_147)" stroke="url(#paint3_linear_44_147)" stroke-width="0.853311"/>
<defs>
<linearGradient id="paint0_linear_44_147" x1="6.04545" y1="14.3006" x2="8.20909" y2="10.224" gradientUnits="userSpaceOnUse">
<stop stop-color="#010CA6"/>
<stop offset="1" stop-color="#FFDB00"/>
</linearGradient>
<linearGradient id="paint1_linear_44_147" x1="6.04545" y1="14.3006" x2="8.20909" y2="10.224" gradientUnits="userSpaceOnUse">
<stop stop-color="#010CA6"/>
<stop offset="1" stop-color="#FFDB00"/>
</linearGradient>
<linearGradient id="paint2_linear_44_147" x1="3.4028" y1="4.01553" x2="14.7997" y2="-3.84562" gradientUnits="userSpaceOnUse">
<stop stop-color="#010CA6"/>
<stop offset="1" stop-color="#FFDB00"/>
</linearGradient>
<linearGradient id="paint3_linear_44_147" x1="3.4028" y1="4.01553" x2="14.7997" y2="-3.84562" gradientUnits="userSpaceOnUse">
<stop stop-color="#010CA6"/>
<stop offset="1" stop-color="#FFDB00"/>
</linearGradient>
</defs>
</svg>
