<svg width="16" height="16" viewBox="0 0 16 16" fill="none" xmlns="http://www.w3.org/2000/svg">
<path d="M6.35736 0.445888C6.69903 0.15793 7.13148 0 7.57831 0C8.02514 0 8.4576 0.15793 8.79926 0.445888L14.483 5.23876C14.9099 5.59916 15.1566 6.1288 15.1566 6.68707V14.5264C15.1566 14.9172 15.0014 15.2921 14.725 15.5684C14.4487 15.8447 14.0739 16 13.6831 16H10.7359C10.3451 16 9.97033 15.8447 9.69398 15.5684C9.41763 15.2921 9.26238 14.9172 9.26238 14.5264V10.3104C9.26238 10.2545 9.24021 10.201 9.20073 10.1615C9.16125 10.122 9.10771 10.0998 9.05188 10.0998H6.10475C6.04892 10.0998 5.99538 10.122 5.9559 10.1615C5.91642 10.201 5.89424 10.2545 5.89424 10.3104V14.5264C5.89424 14.9172 5.739 15.2921 5.46265 15.5684C5.1863 15.8447 4.8115 16 4.42068 16H1.47356C1.28005 16 1.08843 15.9619 0.909654 15.8878C0.730873 15.8138 0.568429 15.7052 0.431596 15.5684C0.294763 15.4316 0.186222 15.2691 0.112168 15.0903C0.0381149 14.9116 0 14.7199 0 14.5264V6.68707C0 6.1288 0.246716 5.59916 0.673628 5.23876L6.35736 0.445888ZM7.98502 1.4117C7.87117 1.31587 7.72713 1.26331 7.57831 1.26331C7.4295 1.26331 7.28546 1.31587 7.17161 1.4117L1.48788 6.20374C1.41754 6.26295 1.36098 6.3368 1.32215 6.42014C1.28331 6.50347 1.26315 6.59429 1.26305 6.68623V14.5256C1.26305 14.6418 1.35736 14.7361 1.47356 14.7361H4.42068C4.47651 14.7361 4.53006 14.7139 4.56954 14.6744C4.60901 14.635 4.63119 14.5814 4.63119 14.5256V10.3095C4.63119 9.49526 5.29135 8.83595 6.10475 8.83595H9.05188C9.86528 8.83595 10.5254 9.49526 10.5254 10.3095V14.5256C10.5254 14.6418 10.6197 14.7361 10.7359 14.7361H13.6831C13.7389 14.7361 13.7924 14.7139 13.8319 14.6744C13.8714 14.635 13.8936 14.5814 13.8936 14.5256V6.68623C13.8935 6.59429 13.8733 6.50347 13.8345 6.42014C13.7956 6.3368 13.7391 6.26295 13.6688 6.20374L7.98502 1.4117Z" fill="url(#paint0_linear_49_788)"/>
<defs>
<linearGradient id="paint0_linear_49_788" x1="2.94813" y1="5.3779" x2="15.1005" y2="-0.0446053" gradientUnits="userSpaceOnUse">
<stop stop-color="#010CA6"/>
<stop offset="1" stop-color="#FFDB00"/>
</linearGradient>
</defs>
</svg>
